<svg width="27" height="27" viewBox="0 0 27 27" fill="none" xmlns="http://www.w3.org/2000/svg">
<path fill-rule="evenodd" clip-rule="evenodd" d="M13.5 1.40625C6.82538 1.40625 1.40625 6.82538 1.40625 13.5C1.40625 20.1746 6.82538 25.5938 13.5 25.5938C20.1746 25.5938 25.5938 20.1746 25.5938 13.5C25.5938 6.82538 20.1746 1.40625 13.5 1.40625ZM13.5 3.09375C19.2431 3.09375 23.9063 7.75688 23.9063 13.5C23.9063 19.2431 19.2431 23.9063 13.5 23.9063C7.75688 23.9063 3.09375 19.2431 3.09375 13.5C3.09375 7.75688 7.75688 3.09375 13.5 3.09375Z" fill="black"/>
<path fill-rule="evenodd" clip-rule="evenodd" d="M13.5 5.90625C10.8608 5.90625 8.71875 8.04825 8.71875 10.6875C8.71875 13.3268 10.8608 15.4688 13.5 15.4688C16.1393 15.4688 18.2813 13.3268 18.2813 10.6875C18.2813 8.04825 16.1393 5.90625 13.5 5.90625ZM13.5 7.59375C15.2078 7.59375 16.5938 8.97975 16.5938 10.6875C16.5938 12.3953 15.2078 13.7813 13.5 13.7813C11.7923 13.7813 10.4063 12.3953 10.4063 10.6875C10.4063 8.97975 11.7923 7.59375 13.5 7.59375Z" fill="black"/>
<path fill-rule="evenodd" clip-rule="evenodd" d="M4.83963 21.4852C4.80926 21.7462 4.90263 22.0061 5.09051 22.1884C7.26851 24.2966 10.234 25.5938 13.4999 25.5938C16.7658 25.5938 19.7313 24.2966 21.9093 22.1884C22.0971 22.0061 22.1905 21.7462 22.1601 21.4852C21.6561 17.1506 17.9684 13.7812 13.4999 13.7812C9.03138 13.7812 5.34363 17.1506 4.83963 21.4852ZM6.57663 21.2659C7.16051 17.973 10.0405 15.4688 13.4999 15.4688C16.9593 15.4688 19.8393 17.973 20.4231 21.2659C18.5826 22.9084 16.1571 23.9062 13.4999 23.9062C10.8426 23.9062 8.41713 22.9072 6.57663 21.2659Z" fill="black"/>
</svg>
